<?xml version="1.0" encoding="utf-8"?>
<!-- Generator: Adobe Illustrator 19.1.0, SVG Export Plug-In . SVG Version: 6.00 Build 0)  -->
<svg version="1.1" id="layer_1" xmlns="http://www.w3.org/2000/svg" xmlns:xlink="http://www.w3.org/1999/xlink" x="0px"
	 y="0px" viewBox="0 0 100 73" style="enable-background:new 0 0 100 73;" xml:space="preserve">
<g>
	<path d="M33.5,32.3h52l-7.1-6.9c-1.7-1.6-1.7-4.3-0.1-5.9c1.6-1.7,4.3-1.7,5.9-0.1l14.5,14.1c0,0,0,0,0,0c0,0,0,0,0.1,0v0
		c0.1,0.1,0.2,0.2,0.3,0.3c0.1,0.1,0.2,0.2,0.2,0.3c0.1,0.1,0.1,0.3,0.2,0.4c0.1,0.1,0.1,0.2,0.2,0.3c0.1,0.1,0.1,0.3,0.1,0.4
		c0,0.1,0.1,0.2,0.1,0.4c0,0.1,0,0.3,0,0.4c0,0.1,0,0.3,0,0.4c0,0.1,0,0.3,0,0.4c0,0.1,0,0.3,0,0.4c0,0.1-0.1,0.2-0.1,0.4
		c0,0.1-0.1,0.3-0.1,0.4c0,0.1-0.1,0.2-0.2,0.3c-0.1,0.1-0.1,0.3-0.2,0.4c-0.1,0.1-0.2,0.2-0.2,0.3c-0.1,0.1-0.2,0.2-0.3,0.3
		c0,0,0,0-0.1,0c0,0,0,0,0,0L84.2,53.6c-1.7,1.6-4.3,1.6-5.9-0.1c-1.6-1.7-1.6-4.3,0.1-5.9l7.1-6.9h-52c-2.3,0-4.2-1.9-4.2-4.2
		C29.3,34.2,31.2,32.3,33.5,32.3z"/>
	<path d="M14.5,72.7h43.3c8,0,14.5-6.5,14.5-14.5V47.3c0-2.3-1.9-4.2-4.2-4.2c-2.3,0-4.2,1.9-4.2,4.2v10.8c0,3.4-2.7,6.1-6.1,6.1
		H14.5c-3.4,0-6.1-2.7-6.1-6.1V14.8c0-3.4,2.7-6.1,6.1-6.1h43.3c3.4,0,6.1,2.7,6.1,6.1v10.7c0,2.3,1.9,4.2,4.2,4.2
		c2.3,0,4.2-1.9,4.2-4.2V14.8c0-8-6.5-14.5-14.5-14.5H14.5C6.5,0.3,0,6.8,0,14.8l0,43.3C0,66.2,6.5,72.7,14.5,72.7z"/>
</g>
</svg>
