<?xml version="1.0" encoding="utf-8"?>
<!-- Generator: Adobe Illustrator 19.1.0, SVG Export Plug-In . SVG Version: 6.00 Build 0)  -->
<svg version="1.1" id="layer_1" xmlns="http://www.w3.org/2000/svg" xmlns:xlink="http://www.w3.org/1999/xlink" x="0px"
	 y="0px" viewBox="0 0 100 100" style="enable-background:new 0 0 100 100;" xml:space="preserve">
<style type="text/css">
	.st0{fill:#FA181E;}
	.st1{fill:#FF0000;}
</style>
<g>
	<path class="st0" d="M50,3.7c25.5,0,46.3,20.8,46.3,46.3S75.5,96.3,50,96.3C24.5,96.3,3.7,75.5,3.7,50S24.5,3.7,50,3.7 M50,0
		C22.4,0,0,22.4,0,50s22.4,50,50,50c27.6,0,50-22.4,50-50S77.6,0,50,0L50,0z"/>
	<g>
		<path class="st1" d="M47.2,61.6c0.1-1.6,0.1-2.3,0.1-3.7c0-0.7,0-0.7,0-3.3l-0.6-22.7c-0.1-2.8-0.2-4.9-0.5-7.3h7.6
			c-0.3,2.5-0.4,4.7-0.5,7.3l-0.6,22.7c-0.1,1-0.1,1.8-0.1,2.5c0,0.5,0,0.7,0,1c0,0.8,0.1,2.2,0.2,3.6H47.2z M46.5,74.4v-6.8h7.1
			v6.8H46.5z"/>
	</g>
</g>
</svg>
