<?xml version="1.0" encoding="utf-8"?>
<!-- Generator: Adobe Illustrator 19.1.0, SVG Export Plug-In . SVG Version: 6.00 Build 0)  -->
<svg version="1.1" id="layer_1" xmlns="http://www.w3.org/2000/svg" xmlns:xlink="http://www.w3.org/1999/xlink" x="0px"
	 y="0px" viewBox="0 0 100 73" style="enable-background:new 0 0 100 73;" xml:space="preserve">
<g>
	<path d="M66.5,32.3h-52l7.1-6.9c1.7-1.6,1.7-4.3,0.1-5.9c-1.6-1.7-4.3-1.7-5.9-0.1L1.3,33.5c0,0,0,0,0,0c0,0,0,0-0.1,0v0
		c-0.1,0.1-0.2,0.2-0.3,0.3c-0.1,0.1-0.2,0.2-0.2,0.3c-0.1,0.1-0.1,0.3-0.2,0.4c-0.1,0.1-0.1,0.2-0.2,0.3c-0.1,0.1-0.1,0.3-0.1,0.4
		c0,0.1-0.1,0.2-0.1,0.4c0,0.1,0,0.3,0,0.4c0,0.1,0,0.3,0,0.4c0,0.1,0,0.3,0,0.4c0,0.1,0,0.3,0,0.4c0,0.1,0.1,0.2,0.1,0.4
		c0,0.1,0.1,0.3,0.1,0.4c0,0.1,0.1,0.2,0.2,0.3c0.1,0.1,0.1,0.3,0.2,0.4c0.1,0.1,0.2,0.2,0.2,0.3c0.1,0.1,0.2,0.2,0.3,0.3
		c0,0,0,0,0.1,0c0,0,0,0,0,0l14.5,14.1c1.7,1.6,4.3,1.6,5.9-0.1c1.6-1.7,1.6-4.3-0.1-5.9l-7.1-6.9h52c2.3,0,4.2-1.9,4.2-4.2
		C70.7,34.2,68.8,32.3,66.5,32.3z"/>
	<path d="M85.5,72.7H42.2c-8,0-14.5-6.5-14.5-14.5V47.3c0-2.3,1.9-4.2,4.2-4.2c2.3,0,4.2,1.9,4.2,4.2v10.8c0,3.4,2.7,6.1,6.1,6.1
		h43.3c3.4,0,6.1-2.7,6.1-6.1V14.8c0-3.4-2.7-6.1-6.1-6.1H42.2c-3.4,0-6.1,2.7-6.1,6.1v10.7c0,2.3-1.9,4.2-4.2,4.2
		c-2.3,0-4.2-1.9-4.2-4.2V14.8c0-8,6.5-14.5,14.5-14.5h43.3c8,0,14.5,6.5,14.5,14.5v43.3C100,66.2,93.5,72.7,85.5,72.7z"/>
</g>
</svg>
