<?xml version="1.0" encoding="utf-8"?>
<!-- Generator: Adobe Illustrator 19.1.0, SVG Export Plug-In . SVG Version: 6.00 Build 0)  -->
<svg version="1.1" id="P" xmlns="http://www.w3.org/2000/svg" xmlns:xlink="http://www.w3.org/1999/xlink" x="0px" y="0px"
	 viewBox="0 0 16 16" style="enable-background:new 0 0 16 16;" xml:space="preserve">
<style type="text/css">
	.st0{fill:#FFFFFF;}
</style>
<path id="rates_x5F_platinum" class="st0" d="M1.9,15.5c0.1-0.8,0.1-1.6,0.1-2.7V3.1c0-1,0-1.8-0.1-2.6c0.8,0,1.5,0.1,2.6,0.1h3.9
	c3.6,0,5.5,1.7,5.5,4.8c0,3.2-2.1,5.1-5.5,5.1H5.7v2.3c0,1.1,0.1,1.9,0.1,2.7H1.9z M8.4,7.4c1.3,0,2-0.7,2-1.9c0-1.2-0.7-1.9-2-1.9
	H5.7v3.8H8.4z"/>
</svg>
