<?xml version="1.0" encoding="utf-8"?>
<!-- Generator: Adobe Illustrator 19.1.0, SVG Export Plug-In . SVG Version: 6.00 Build 0)  -->
<svg version="1.1" id="B" xmlns="http://www.w3.org/2000/svg" xmlns:xlink="http://www.w3.org/1999/xlink" x="0px" y="0px"
	 viewBox="0 0 16 16" style="enable-background:new 0 0 16 16;" xml:space="preserve">
<style type="text/css">
	.st0{fill:#FFFFFF;}
</style>
<path id="rates_x5F_bronze" class="st0" d="M4.4,15.5c-1.4,0-1.9,0-2.7,0.1c0.1-0.8,0.1-1.4,0.1-2.6V3c0-1,0-1.7-0.1-2.6
	c0.9,0.1,1.2,0.1,2.6,0.1h4.7c2.9,0,4.6,1.4,4.6,3.8c0,1.1-0.4,2-1,2.6c-0.4,0.3-0.7,0.5-1.5,0.8c0.9,0.2,1.4,0.4,1.9,0.9
	c0.8,0.7,1.2,1.7,1.2,2.8c0,2.6-1.8,4.1-5,4.1H4.4z M8.6,6.3c1,0,1.5-0.6,1.5-1.4S9.6,3.5,8.5,3.5H5.4v2.8H8.6z M5.4,12.5h3.3
	c1.1,0,1.8-0.6,1.8-1.7c0-1-0.7-1.7-1.8-1.7H5.4V12.5z"/>
</svg>
