<?xml version="1.0" encoding="utf-8"?>
<!-- Generator: Adobe Illustrator 19.1.0, SVG Export Plug-In . SVG Version: 6.00 Build 0)  -->
<svg version="1.1" id="V" xmlns="http://www.w3.org/2000/svg" xmlns:xlink="http://www.w3.org/1999/xlink" x="0px" y="0px"
	 viewBox="0 0 16 16" style="enable-background:new 0 0 16 16;" xml:space="preserve">
<style type="text/css">
	.st0{fill:#FFFFFF;}
</style>
<path id="rates_x5F_value" class="st0" d="M7.7,11.1c0.1,0.5,0.1,0.5,0.3,1.2c0.2-0.8,0.3-0.9,0.3-1.2L11,2.5
	c0.2-0.8,0.4-1.3,0.4-1.9h4.2c-0.3,0.5-0.4,1-0.9,2.2l-3.8,10.8c-0.3,0.9-0.5,1.5-0.6,1.9H5.7c-0.1-0.5-0.3-1.1-0.6-1.9L1.2,2.7
	c-0.4-1-0.5-1.5-0.8-2.2h4.2C4.7,1.1,4.8,1.8,5,2.5L7.7,11.1z"/>
</svg>
