<?xml version="1.0" encoding="utf-8"?>
<!-- Generator: Adobe Illustrator 19.1.0, SVG Export Plug-In . SVG Version: 6.00 Build 0)  -->
<svg version="1.1" id="S" xmlns="http://www.w3.org/2000/svg" xmlns:xlink="http://www.w3.org/1999/xlink" x="0px" y="0px"
	 viewBox="0 0 16 16" style="enable-background:new 0 0 16 16;" xml:space="preserve">
<style type="text/css">
	.st0{fill:#FFFFFF;}
</style>
<path id="rates_x5F_silver" class="st0" d="M5.6,10.6c0.1,0.6,0.2,1,0.5,1.3c0.4,0.5,1.2,0.8,2.1,0.8c1.4,0,2.2-0.6,2.2-1.6
	c0-0.6-0.3-1-0.8-1.3C9.2,9.7,8.8,9.6,6.9,9.2C5.2,8.8,4.7,8.6,4,8.1c-1.1-0.8-1.7-2-1.7-3.5c0-2.8,2.2-4.5,5.8-4.5
	c2.3,0,4,0.7,5,2.1c0.5,0.6,0.7,1.1,0.9,2.2l-3.8,0.4C9.9,3.6,9.3,3.1,7.9,3.1C6.8,3.1,6,3.7,6,4.6c0,0.5,0.3,0.9,0.8,1.2
	c0.4,0.2,0.4,0.2,2.5,0.6c1.4,0.3,2.2,0.6,2.9,1c1.3,0.8,1.9,2,1.9,3.7c0,1.4-0.4,2.5-1.3,3.3c-1,1-2.6,1.5-4.7,1.5
	c-1.5,0-3-0.3-4-0.9c-0.9-0.5-1.6-1.3-1.9-2.3C2,12.2,2,11.8,1.8,11L5.6,10.6z"/>
</svg>
