<?xml version="1.0" encoding="utf-8"?>
<!-- Generator: Adobe Illustrator 19.1.0, SVG Export Plug-In . SVG Version: 6.00 Build 0)  -->
<svg version="1.1" id="G" xmlns="http://www.w3.org/2000/svg" xmlns:xlink="http://www.w3.org/1999/xlink" x="0px" y="0px"
	 viewBox="0 0 16 16" style="enable-background:new 0 0 16 16;" xml:space="preserve">
<style type="text/css">
	.st0{fill:#FFFFFF;}
</style>
<path id="rates_x5F_gold" class="st0" d="M10.4,10c-0.9,0-1.2,0-1.8,0.1V6.9C9.3,7,9.7,7,11,7h1.4c0.9,0,1.6,0,2.4-0.1
	c-0.1,0.7-0.1,1.3-0.1,2.4v2c0,1.3,0,1.9,0.1,2.7c-1,0.6-1.5,0.9-2.3,1.1c-1.2,0.4-2.5,0.6-3.8,0.6c-2.3,0-4.1-0.6-5.3-1.9
	c-1.4-1.4-2.1-3.5-2.1-6c0-4.7,2.9-7.7,7.4-7.7c2.3,0,4,0.7,5.1,2.1c0.5,0.6,0.8,1.1,1.1,2l-3.7,0.8c-0.2-0.6-0.4-1-0.8-1.3
	C9.9,3.5,9.3,3.3,8.5,3.3C6.2,3.3,4.9,4.9,4.9,8c0,1.7,0.4,3,1.1,3.8c0.6,0.6,1.5,1,2.6,1c1,0,1.7-0.2,2.6-0.6V10H10.4z"/>
</svg>
